<?xml version="1.0" encoding="iso-8859-1"?>
<!-- Generator: Adobe Illustrator 19.0.0, SVG Export Plug-In . SVG Version: 6.00 Build 0)  -->
<svg version="1.1" id="Capa_1" xmlns="http://www.w3.org/2000/svg" xmlns:xlink="http://www.w3.org/1999/xlink" x="0px" y="0px"
	 viewBox="0 0 372.332 372.332" style="enable-background:new 0 0 372.332 372.332;" xml:space="preserve" fill="#fff">
<g>
	<g>
		<path d="M238.166,91.612c-6.517-6.627-15.349-10.469-24.64-10.72c-10.32,0.487-20.083,4.826-27.36,12.16
			c-7.264-7.364-17.029-11.732-27.36-12.24c-9.291,0.251-18.123,4.093-24.64,10.72c-8.62,7.913-12.602,19.679-10.56,31.2
			c4.08,29.04,36.88,60.08,58.96,71.44c2.264,1.141,4.936,1.141,7.2,0c22.08-11.12,54.88-42.16,58.96-71.36
			C250.768,111.291,246.786,99.524,238.166,91.612z M232.966,120.332c-2.8,19.68-26.16,45.44-46.72,57.36
			c-20.56-11.92-43.92-37.6-46.72-57.36c-1.295-6.304,0.799-12.827,5.52-17.2c3.588-3.83,8.519-6.124,13.76-6.4
			c8.423,1.215,15.975,5.845,20.88,12.8c2.56,3.601,7.555,4.445,11.156,1.884c0.729-0.518,1.366-1.155,1.884-1.884
			c4.987-6.867,12.498-11.471,20.88-12.8c5.241,0.276,10.172,2.57,13.76,6.4C232.116,107.488,234.241,114.013,232.966,120.332z"/>
	</g>
</g>
<g>
	<g>
		<path d="M358.166,131.452l-60.96-47.36v-36.48c0-4.418-3.582-8-8-8h-49.36l-48.8-37.92c-2.892-2.256-6.948-2.256-9.84,0
			l-48.8,37.92h-49.28c-4.418,0-8,3.582-8,8v36.48l-60.96,47.36c-1.875,1.58-3.006,3.871-3.12,6.32v226.56c0,4.418,3.582,8,8,8
			h334.24c4.418,0,8-3.582,8-8v-226.56C361.077,135.348,359.963,133.092,358.166,131.452z M297.206,104.332l44.16,34.24l-44.16,46
			V104.332z M186.166,18.172l27.6,21.44h-55.2L186.166,18.172z M281.206,55.612v145.6l-49.68,51.68l-40-33.44
			c-2.966-2.471-7.274-2.471-10.24,0l-38.32,32l-51.6-52.08l-0.24-143.76H281.206z M75.126,104.412v78.56l-44-44.8L75.126,104.412z
			 M27.126,157.292l103.04,104.24l-103.12,85.76L27.126,157.292z M41.286,356.412l144.88-120.48l144.96,120L41.286,356.412z
			 M345.286,347.372l-101.36-84.32l101.36-105.44V347.372z"/>
	</g>
</g>
<g>
</g>
<g>
</g>
<g>
</g>
<g>
</g>
<g>
</g>
<g>
</g>
<g>
</g>
<g>
</g>
<g>
</g>
<g>
</g>
<g>
</g>
<g>
</g>
<g>
</g>
<g>
</g>
<g>
</g>
</svg>
